#N canvas 740 344 688 482 10;
#X floatatom 58 38 5 0 0 0 r_trigger trigger -, f 5;
#X obj 58 68 bng 15 250 50 0 empty empty empty 17 7 0 10 -262144 -1
-1;
#X obj 24 132 vline~;
#X obj 24 165 *~;
#X obj 24 198 dac~;
#X floatatom 152 52 5 0 0 0 r_midinote midinote -, f 5;
#X floatatom 151 86 5 0 0 0 - - -, f 5;
#X obj 147 115 mtof;
#X obj 362 203 adc~;
#X obj 99 145 osc~ 80;
#X msg 23 100 1 10 \, 0 1000 10;
#X floatatom 65 287 5 0 0 0 - - -, f 5;
#X obj 59 251 r pitch;
#X obj 22 1302 oscparse;
#X obj 22 1302 oscparse;
#X obj 290 192 bng 15 250 50 0 empty empty empty 17 7 0 10 -262144
-1 -1;
#X obj 79 332 osc~;
#X msg 310 115 set \$1 100 0 0;
#X floatatom 324 85 5 0 0 0 - - -, f 5;
#X obj 322 25 r threshold;
#X obj 247 92 adc~;
#X obj 335 357 send pitch;
#X obj 320 51 * 0.1;
#X obj 333 321 0;
#X obj 280 158 threshold~ 0.1 25 0 0;
#X obj 363 238 sigmund~ notes;
#X msg 438 170 vibrato 50 0.5;
#X msg 453 194 auto 0;
#X msg 448 124 npartial 40;
#X obj 344 289 mtof;
#X connect 0 0 1 0;
#X connect 1 0 10 0;
#X connect 2 0 3 0;
#X connect 3 0 4 0;
#X connect 3 0 4 1;
#X connect 5 0 6 0;
#X connect 6 0 7 0;
#X connect 7 0 9 0;
#X connect 8 0 25 0;
#X connect 9 0 3 1;
#X connect 10 0 2 0;
#X connect 11 0 16 0;
#X connect 12 0 11 0;
#X connect 17 0 24 0;
#X connect 18 0 17 0;
#X connect 19 0 22 0;
#X connect 20 0 24 0;
#X connect 22 0 18 0;
#X connect 23 0 21 0;
#X connect 24 0 15 0;
#X connect 25 0 29 0;
#X connect 26 0 25 0;
#X connect 27 0 25 0;
#X connect 28 0 25 0;
#X connect 29 0 23 0;
