#N canvas 740 344 688 482 10;
#X floatatom 58 38 5 0 0 0 r_trigger trigger -, f 5;
#X obj 58 68 bng 15 250 50 0 empty empty empty 17 7 0 10 -262144 -1
-1;
#X obj 24 132 vline~;
#X obj 24 165 *~;
#X obj 24 198 dac~;
#X floatatom 152 52 5 0 0 0 r_midinote midinote -, f 5;
#X floatatom 151 86 5 0 0 0 - - -, f 5;
#X obj 147 115 mtof;
#X obj 362 203 adc~;
#X obj 99 145 osc~ 80;
#X msg 23 100 1 10 \, 0 1000 10;
#X obj 22 1302 oscparse;
#X obj 22 1302 oscparse;
#X obj 335 357 send pitch;
#X obj 333 321 0;
#X obj 363 238 sigmund~ notes;
#X obj 344 289 mtof;
#X connect 0 0 1 0;
#X connect 1 0 10 0;
#X connect 2 0 3 0;
#X connect 3 0 4 0;
#X connect 3 0 4 1;
#X connect 5 0 6 0;
#X connect 6 0 7 0;
#X connect 7 0 9 0;
#X connect 8 0 15 0;
#X connect 9 0 3 1;
#X connect 10 0 2 0;
#X connect 14 0 13 0;
#X connect 15 0 16 0;
#X connect 16 0 14 0;
